<!--?xml version="1.0" standalone="no"?-->              
<svg id="sw-js-blob-svg" viewBox="0 0 100 100" xmlns="http://www.w3.org/2000/svg">                   
 <defs>                         
 <linearGradient id="sw-gradient" x1="0" x2="1" y1="1" y2="0">                            
 <stop id="stop1" stop-color="rgba(248, 117, 55, 1)" offset="0%"></stop>                            
 <stop id="stop2" stop-color="rgba(251, 168, 31, 1)" offset="100%"></stop>                        
 </linearGradient>                    </defs>                
 <path fill="url(#sw-gradient)" d="M18.3,-29.8C22.8,-25.5,24.9,-18.9,28.3,-12.6C31.8,-6.2,36.5,-0.2,35.9,5.3C35.3,10.7,29.3,15.4,24.7,22.2C20.1,28.9,16.9,37.7,11.4,39.6C6,41.6,-1.7,36.7,-9,33.3C-16.3,29.9,-23.3,28.1,-28.4,23.8C-33.6,19.4,-36.8,12.6,-37.7,5.5C-38.6,-1.6,-37.1,-8.9,-32.9,-13.7C-28.7,-18.5,-21.7,-20.7,-15.8,-24.3C-9.8,-27.8,-4.9,-32.8,1,-34.4C6.9,-35.9,13.8,-34,18.3,-29.8Z" width="100%" height="100%" transform="translate(50 50)" stroke-width="0" style="transition: 0.3s;"></path>              
 </svg>