<svg viewBox="0 0 200 200" xmlns="http://www.w3.org/2000/svg" id="foto-landing">
	<path  d="M36.6,-59.2C50.3,-55.5,66.3,-51.5,71.4,-41.6C76.5,-31.7,70.6,-15.8,71.2,0.4C71.9,16.6,79,33.2,75.9,46.4C72.7,59.7,59.3,69.5,44.9,74.8C30.6,80.1,15.3,80.9,0.1,80.7C-15.1,80.6,-30.2,79.6,-42.1,72.8C-53.9,66.1,-62.5,53.6,-68.3,40.5C-74,27.4,-76.9,13.7,-77.1,-0.1C-77.2,-13.8,-74.5,-27.6,-67.2,-38.1C-59.9,-48.5,-48,-55.5,-36.1,-60.2C-24.1,-64.9,-12,-67.2,-0.3,-66.7C11.4,-66.1,22.9,-62.8,36.6,-59.2Z" transform="translate(100 100)" />
</svg>	