<!--?xml version="1.0" standalone="no"?-->
              <svg id="sw-js-blob-svg" viewBox="0 0 100 100" xmlns="http://www.w3.org/2000/svg" version="1.1">

                <path d="M23.3,-34.5C28.4,-28.3,29.7,-19.2,31.8,-10.7C34,-2.3,37.2,5.4,36.5,13.2C35.9,21.1,31.4,29.1,24.7,32.4C18,35.7,9,34.3,-0.1,34.4C-9.2,34.6,-18.4,36.3,-24.2,32.7C-30,29.1,-32.4,20.2,-35.6,11.4C-38.8,2.5,-42.6,-6.3,-41,-13.9C-39.4,-21.6,-32.2,-28,-24.4,-33.4C-16.7,-38.8,-8.3,-43.1,0.4,-43.6C9.1,-44.1,18.1,-40.7,23.3,-34.5Z" width="100%" height="100%" transform="translate(50 50)" style="transition: 0.3s;" stroke-width="0"></path>
              </svg>
